<svg width="38" height="40" viewBox="0 0 38 40" fill="none" xmlns="http://www.w3.org/2000/svg">
<path d="M35.9797 18.9266C35.8674 18.7142 35.7158 18.5287 35.5342 18.3815C35.3525 18.2343 35.1447 18.1284 34.9234 18.0704C33.4317 17.6829 31.8813 17.6309 30.3699 17.9175C31.0123 14.8903 30.5983 12.5205 30.1701 11.1445C30.0413 10.7115 29.767 10.3452 29.4005 10.1164C29.0339 9.88762 28.6012 9.81267 28.186 9.90607C26.7134 10.263 25.3212 10.9281 24.0893 11.8631C23.2179 9.6249 21.8155 7.66954 20.0212 6.19085C19.7247 5.95267 19.364 5.82391 18.9934 5.82391C18.6228 5.82391 18.2622 5.95267 17.9657 6.19085C16.1713 7.66954 14.7689 9.6249 13.8975 11.8631C12.6656 10.9281 11.2734 10.263 9.80086 9.90607C9.38567 9.81267 8.9529 9.88762 8.58635 10.1164C8.21981 10.3452 7.94557 10.7115 7.81675 11.1445C7.38852 12.5205 6.97457 14.8903 7.61691 17.9175C6.10553 17.6309 4.5551 17.6829 3.06345 18.0704C2.84218 18.1284 2.63432 18.2343 2.45267 18.3815C2.27101 18.5287 2.1194 18.7142 2.00716 18.9266C1.78083 19.3535 1.71936 19.8583 1.83587 20.3332C2.32119 22.1678 3.80571 25.6843 8.30207 28.4669C12.7984 31.2495 16.838 31.2648 18.9934 31.2648C21.1488 31.2648 25.1599 31.2648 29.6848 28.4669C34.2097 25.669 35.6656 22.1678 36.151 20.3332C36.2675 19.8583 36.206 19.3535 35.9797 18.9266ZM28.4286 11.1139C28.5647 11.0798 28.7077 11.1018 28.8294 11.1754C28.951 11.249 29.0423 11.369 29.0852 11.5114C29.4992 12.8874 29.9131 15.3337 29.0424 18.4832C29.0282 18.5138 29.0282 18.5443 29.0139 18.5749C28.6716 19.7848 28.1923 20.9452 27.5865 22.0302C26.3652 24.2722 24.7397 26.2315 22.8046 27.7942L22.4478 28.0694C23.8895 26.0359 25.274 22.917 25.274 18.422C25.2885 16.5954 25.0282 14.7783 24.5032 13.0403C25.6687 12.1061 27.007 11.4493 28.4286 11.1139ZM18.6508 7.16934C18.7497 7.08995 18.8699 7.04703 18.9934 7.04703C19.117 7.04703 19.2372 7.08995 19.336 7.16934C20.7777 8.33131 24.1321 11.7255 24.1321 18.422C24.1321 21.9538 23.2186 24.981 21.4343 27.4425C20.7487 28.4061 19.9248 29.2473 18.9934 29.9346C18.062 29.2473 17.2381 28.4061 16.5525 27.4425C14.7683 24.981 13.8547 21.9538 13.8547 18.422C13.8547 11.7255 17.2091 8.33131 18.6508 7.16934ZM8.90158 11.5114C8.94448 11.369 9.03582 11.249 9.15746 11.1754C9.2791 11.1018 9.42214 11.0798 9.55819 11.1139C10.9798 11.4493 12.3181 12.1061 13.4836 13.0403C12.9586 14.7783 12.6984 16.5954 12.7128 18.422C12.7128 22.917 14.0974 26.0359 15.5391 28.0694L15.1822 27.7942C13.2472 26.2315 11.6217 24.2722 10.4004 22.0302C9.79426 20.94 9.3149 19.7745 8.97295 18.5596L8.94441 18.4832C8.07368 15.3337 8.48763 12.8874 8.90158 11.5114ZM2.93498 19.9968C2.91549 19.9201 2.91049 19.8401 2.9203 19.7613C2.9301 19.6825 2.95451 19.6066 2.99208 19.5381C3.07107 19.4014 3.19228 19.2986 3.33466 19.2476C4.85568 18.871 6.43633 18.8658 7.95949 19.2323C8.32972 20.4187 8.81282 21.5612 9.40118 22.6418C11.2425 26.0665 13.9261 28.5128 16.0958 29.9193C13.5474 29.652 11.0833 28.7966 8.87303 27.412C4.71925 24.8434 3.37748 21.6633 2.93498 19.9968ZM35.0518 19.9968C34.6093 21.6633 33.2676 24.8434 29.1138 27.412C26.9035 28.7966 24.4394 29.652 21.8911 29.9193C24.0607 28.5128 26.7443 26.0665 28.5857 22.6418C29.174 21.5612 29.6571 20.4187 30.0273 19.2323C31.5505 18.8658 33.1311 18.871 34.6522 19.2476C34.7945 19.2986 34.9158 19.4014 34.9948 19.5381C35.0323 19.6066 35.0567 19.6825 35.0665 19.7613C35.0763 19.8401 35.0713 19.9201 35.0518 19.9968Z" fill="#3F3232"/>
</svg>
