<svg width="16" height="16" viewBox="0 0 16 16" fill="none" xmlns="http://www.w3.org/2000/svg">
<path d="M8.83333 4.66666C10.5858 4.66666 11.3333 5.41416 11.3333 7.16666H13C13 4.47916 11.5208 3 8.83333 3V4.66666ZM11.685 9.2025C11.5249 9.05696 11.3145 8.97933 11.0982 8.98602C10.8819 8.99271 10.6767 9.08318 10.5258 9.23833L8.53167 11.2892C8.05167 11.1975 7.08667 10.8967 6.09333 9.90583C5.1 8.91166 4.79917 7.94416 4.71 7.4675L6.75917 5.4725C6.91451 5.32177 7.00511 5.11651 7.0118 4.90017C7.01849 4.68382 6.94074 4.47336 6.795 4.31333L3.71583 0.927496C3.57003 0.76696 3.3674 0.669583 3.15096 0.656045C2.93452 0.642508 2.72133 0.713878 2.55667 0.854996L0.748332 2.40583C0.604258 2.55043 0.518265 2.74287 0.506665 2.94666C0.494165 3.155 0.255832 8.09 4.0825 11.9183C7.42083 15.2558 11.6025 15.5 12.7542 15.5C12.9225 15.5 13.0258 15.495 13.0533 15.4933C13.2571 15.4819 13.4494 15.3955 13.5933 15.2508L15.1433 13.4417C15.2846 13.2771 15.3561 13.064 15.3427 12.8475C15.3293 12.6311 15.2321 12.4284 15.0717 12.2825L11.685 9.2025Z" fill="#75464A"/>
</svg>
